<?xml version="1.0" encoding="iso-8859-1"?>
<!-- Generator: Adobe Illustrator 16.0.0, SVG Export Plug-In . SVG Version: 6.00 Build 0)  -->
<!DOCTYPE svg PUBLIC "-//W3C//DTD SVG 1.1//EN" "http://www.w3.org/Graphics/SVG/1.1/DTD/svg11.dtd">
<svg version="1.1" id="Layer_1" xmlns="http://www.w3.org/2000/svg" xmlns:xlink="http://www.w3.org/1999/xlink" x="0px" y="0px"
	 width="512px" height="512px" viewBox="0 0 512 512" style="enable-background:new 0 0 512 512;" xml:space="preserve">
<style type="text/css">
	.st0{fill:#FFFFFF;}
</style>
<polygon style="fill-rule:evenodd;clip-rule:evenodd;" points="491.158,173.649 439.906,120.181 462.212,105.954 463.515,94.866 
	453.167,94.249 426.334,113.55 392.85,113.579 372.352,101.063 365.01,102.562 365.117,110.699 378.33,125.333 376.588,133.02 
	221.09,149.743 60.021,145.245 42.664,152.521 29.879,168.767 23.301,206.767 22.139,234.083 18.152,259.59 19.248,284.995 
	23.732,285.912 30.25,278.735 35.549,254.899 31.254,221.831 32.748,221.606 42.844,271.948 35.967,315.637 42.246,402.834 
	42.844,412.49 48.963,417.71 76.018,417.752 84.736,415.115 60.531,375.698 72.539,325.642 78.828,325.653 100.771,392.206 
	112.082,409.292 117.662,412.727 147.527,412.749 151.359,407.954 125.506,392.073 107.977,338.089 112.371,329.325 
	122.668,330.281 129.133,346.11 138.498,330.681 147.572,346.177 155.258,329.35 177.881,311.961 258.16,304.272 271.635,320.746 
	282.99,401.275 288.965,412.847 316.318,412.836 319.268,408.5 302.641,385.359 300.643,341.294 309.621,346.276 319.078,375.548 
	331.105,413.556 336.498,417.737 360.973,417.752 363.004,412.225 355.85,405.603 332.771,360.502 338.092,313.235 363.951,294.106 
	401.621,224.138 444.979,204.122 484.85,199.583 488.268,195.877 493.848,180.151 "/>
</svg>
